<svg width="40" height="40" viewBox="0 0 40 40" fill="none" xmlns="http://www.w3.org/2000/svg">
<path d="M0 4.61538C0 3.39131 0.371848 2.21737 1.03374 1.35181C1.69563 0.486262 2.59335 0 3.52941 0H34.1176C35.0537 0 35.9514 0.486262 36.6133 1.35181C37.2752 2.21737 37.6471 3.39131 37.6471 4.61538V22.5754C36.5443 21.8906 35.3385 21.5363 34.1176 21.5385H24.7059C23.3164 21.5381 21.9495 21.9974 20.7323 22.8737C19.5152 23.7501 18.4874 25.0148 17.7445 26.5504C17.0017 28.0859 16.5681 29.8422 16.484 31.6558C16.3999 33.4695 16.6681 35.2814 17.2635 36.9231H3.52941C2.59335 36.9231 1.69563 36.4368 1.03374 35.5713C0.371848 34.7057 0 33.5318 0 32.3077V4.61538ZM7.05882 13.8462C7.05882 15.0702 7.43067 16.2442 8.09256 17.1097C8.75446 17.9753 9.65218 18.4615 10.5882 18.4615C11.5243 18.4615 12.422 17.9753 13.0839 17.1097C13.7458 16.2442 14.1176 15.0702 14.1176 13.8462C14.1176 12.6221 13.7458 11.4481 13.0839 10.5826C12.422 9.71703 11.5243 9.23077 10.5882 9.23077C9.65218 9.23077 8.75446 9.71703 8.09256 10.5826C7.43067 11.4481 7.05882 12.6221 7.05882 13.8462ZM16.4706 23.6892C16.4706 22.9148 16.2353 22.1721 15.8166 21.6245C15.3978 21.0769 14.8299 20.7692 14.2376 20.7692H6.94118C6.34896 20.7692 5.78101 21.0769 5.36225 21.6245C4.94349 22.1721 4.70824 22.9148 4.70824 23.6892C4.70824 26.2954 6.06588 28.5662 8 29.2L8.13882 29.2462C9.74824 29.7692 11.4329 29.7692 13.0424 29.2462L13.1835 29.2C14.1228 28.892 14.9564 28.1824 15.5519 27.184C16.1475 26.1855 16.4708 24.9555 16.4706 23.6892ZM22.3529 12.3077C22.0409 12.3077 21.7417 12.4698 21.5211 12.7583C21.3004 13.0468 21.1765 13.4381 21.1765 13.8462C21.1765 14.2542 21.3004 14.6455 21.5211 14.934C21.7417 15.2225 22.0409 15.3846 22.3529 15.3846H29.4118C29.7238 15.3846 30.023 15.2225 30.2437 14.934C30.4643 14.6455 30.5882 14.2542 30.5882 13.8462C30.5882 13.4381 30.4643 13.0468 30.2437 12.7583C30.023 12.4698 29.7238 12.3077 29.4118 12.3077H22.3529ZM24.7059 24.6154C23.1458 24.6154 21.6496 25.4258 20.5464 26.8684C19.4433 28.311 18.8235 30.2676 18.8235 32.3077C18.8235 34.3478 19.4433 36.3044 20.5464 37.747C21.6496 39.1896 23.1458 40 24.7059 40H25.8824C26.1944 40 26.4936 39.8379 26.7142 39.5494C26.9349 39.2609 27.0588 38.8696 27.0588 38.4615C27.0588 38.0535 26.9349 37.6622 26.7142 37.3737C26.4936 37.0852 26.1944 36.9231 25.8824 36.9231H24.7059C23.7698 36.9231 22.8721 36.4368 22.2102 35.5713C21.5483 34.7057 21.1765 33.5318 21.1765 32.3077C21.1765 31.0836 21.5483 29.9097 22.2102 29.0441C22.8721 28.1786 23.7698 27.6923 24.7059 27.6923H25.8824C26.1944 27.6923 26.4936 27.5302 26.7142 27.2417C26.9349 26.9532 27.0588 26.5619 27.0588 26.1538C27.0588 25.7458 26.9349 25.3545 26.7142 25.066C26.4936 24.7775 26.1944 24.6154 25.8824 24.6154H24.7059ZM32.9412 24.6154C32.6292 24.6154 32.3299 24.7775 32.1093 25.066C31.8887 25.3545 31.7647 25.7458 31.7647 26.1538C31.7647 26.5619 31.8887 26.9532 32.1093 27.2417C32.3299 27.5302 32.6292 27.6923 32.9412 27.6923H34.1176C35.0537 27.6923 35.9514 28.1786 36.6133 29.0441C37.2752 29.9097 37.6471 31.0836 37.6471 32.3077C37.6471 33.5318 37.2752 34.7057 36.6133 35.5713C35.9514 36.4368 35.0537 36.9231 34.1176 36.9231H32.9412C32.6292 36.9231 32.3299 37.0852 32.1093 37.3737C31.8887 37.6622 31.7647 38.0535 31.7647 38.4615C31.7647 38.8696 31.8887 39.2609 32.1093 39.5494C32.3299 39.8379 32.6292 40 32.9412 40H34.1176C35.6777 40 37.1739 39.1896 38.2771 37.747C39.3803 36.3044 40 34.3478 40 32.3077C40 30.2676 39.3803 28.311 38.2771 26.8684C37.1739 25.4258 35.6777 24.6154 34.1176 24.6154H32.9412ZM24.7059 30.7692C24.3939 30.7692 24.0946 30.9313 23.874 31.2198C23.6534 31.5084 23.5294 31.8997 23.5294 32.3077C23.5294 32.7157 23.6534 33.107 23.874 33.3956C24.0946 33.6841 24.3939 33.8462 24.7059 33.8462H34.1176C34.4297 33.8462 34.7289 33.6841 34.9495 33.3956C35.1702 33.107 35.2941 32.7157 35.2941 32.3077C35.2941 31.8997 35.1702 31.5084 34.9495 31.2198C34.7289 30.9313 34.4297 30.7692 34.1176 30.7692H24.7059Z" fill="white"/>
</svg>
