<svg width="40" height="40" viewBox="0 0 40 40" fill="none" xmlns="http://www.w3.org/2000/svg">
<path d="M39.9555 19.9943C39.9695 19.519 40.0949 12.7251 36.0742 8.30253C35.8956 7.9072 35.0482 6.31389 32.3136 4.36659C31.1012 3.42621 29.8136 2.58718 28.4636 1.85797L28.4583 1.8553C28.2876 1.76397 24.953 0 20.9057 0C20.5983 0 20.2943 0.0179998 19.9937 0.0386661V0.0333327C16.9077 -0.0339995 13.8424 0.759987 11.9951 1.59397C10.3564 2.33396 8.5371 3.57461 8.40577 3.67061C6.13646 4.93992 1.83315 10.0338 1.49249 12.7331C0.117168 14.4911 -1.03216 22.3876 1.49516 27.1975C3.26714 33.8821 9.93776 37.2274 10.4684 37.484C10.7911 37.69 14.4264 39.9373 18.8924 39.9373C19.0797 39.9373 20.2123 40 20.6163 40C25.4436 40 32.5969 36.5974 34.0942 33.9321C38.2082 30.9228 40.3409 23.1676 39.9555 19.9943ZM10.5051 30.0362C8.59244 26.9422 7.50245 22.8996 7.26911 21.971C7.87444 21.0636 10.8604 16.6611 12.5617 15.3364C13.5251 15.5137 17.5477 16.2524 21.3417 16.9391C21.8183 18.1744 23.9097 23.6249 24.5083 25.7289C23.8483 26.5116 21.2557 29.5302 18.703 31.8941C15.993 31.9068 11.3837 30.3435 10.5051 30.0362ZM34.5489 8.38653C34.5409 8.68652 34.4696 9.75317 33.9589 10.9778C32.9449 10.4598 30.3963 9.35051 26.903 9.16318C26.3743 8.38253 24.385 5.66057 21.243 3.7726C21.673 2.93128 22.2717 1.9053 22.6217 1.59264C22.735 1.56064 22.911 1.53131 23.179 1.53131C24.8636 1.53131 27.7743 2.63462 28.0276 2.73262C28.2963 2.87462 33.5282 5.69191 34.5489 8.38653ZM6.51512 21.341C4.23314 20.9517 2.87648 20.2423 2.47115 20.0023C1.62249 16.9244 2.30582 13.5978 2.41115 13.1211C3.24848 11.6238 5.63246 7.8072 7.20511 7.08255C8.8351 6.74989 10.8678 7.16321 11.6957 7.36521C11.6177 8.44186 11.4677 11.4498 11.9131 14.6064C10.1091 16.0584 7.25378 20.2377 6.51512 21.341M19.7897 1.01998C20.3017 1.05798 21.053 1.16998 21.5677 1.32264C21.0543 2.0053 20.5283 3.01728 20.2797 3.51727C19.233 3.68861 15.2577 4.44859 12.1391 6.47056C11.5104 6.3039 9.61176 5.85924 7.81378 6.01257C8.25911 5.15058 8.92443 4.51326 8.99577 4.44793C9.2431 4.2706 14.0044 0.939318 19.7897 1.01132V1.01998M32.5203 26.4149C31.7403 26.3829 28.7349 26.2116 25.4396 25.4376C24.8083 23.2363 22.7237 17.8084 22.247 16.5737C23.7636 14.4121 25.3032 12.2666 26.8656 10.1378C30.6576 10.3458 33.3202 11.7291 33.8356 12.0178C36.0322 15.5504 36.5142 19.1583 36.5802 19.761C35.4136 23.3916 33.1062 25.8362 32.5203 26.4149M1.10316 17.679C1.15916 18.523 1.29449 19.4117 1.53916 20.2903C1.3192 20.8597 1.1666 21.4528 1.08449 22.0576C0.945264 20.6011 0.951517 19.1343 1.10316 17.679M7.53244 33.2514C8.53777 32.2828 9.77709 31.3401 10.2578 30.9842C11.3444 31.3668 15.807 32.8755 18.6517 32.8755C19.1364 33.5254 20.721 35.5607 22.6637 37.1167C21.4543 38.3 19.7077 38.8587 19.399 38.9514C13.9811 39.0967 8.70444 36.0514 7.53244 33.2514M21.841 38.9434C22.4557 38.5854 23.0963 38.114 23.6263 37.5174C24.491 37.398 28.2016 36.7594 31.5549 34.2961C31.7763 34.3201 32.1409 34.3494 32.5483 34.3381C30.5363 36.3094 25.627 38.5114 21.841 38.9434ZM32.1236 33.3594C33.3282 30.2208 33.2769 27.8542 33.2176 27.0982C33.8789 26.4502 36.1482 24.0323 37.4075 20.3563C38.0862 20.4697 38.5275 20.6423 38.7369 20.739C38.8095 21.0057 38.9309 21.6216 38.8622 22.5556C38.3489 25.9176 36.5769 30.9555 33.4729 33.1828C33.1609 33.3421 32.6116 33.3768 32.1236 33.3594" fill="black"/>
</svg>
