<svg width="40" height="40" viewBox="0 0 40 40" fill="none" xmlns="http://www.w3.org/2000/svg">
<path d="M8.57143 25.4545V21.8182H11.4286V25.4545H8.57143ZM0 7.27273C0 5.34388 0.602039 3.49403 1.67368 2.13013C2.74531 0.766231 4.19876 0 5.71429 0H25.7143C27.2298 0 28.6833 0.766231 29.7549 2.13013C30.8265 3.49403 31.4286 5.34388 31.4286 7.27273V30.9091C31.4286 31.3913 31.5791 31.8538 31.847 32.1947C32.1149 32.5357 32.4783 32.7273 32.8571 32.7273C33.236 32.7273 33.5994 32.5357 33.8673 32.1947C34.1352 31.8538 34.2857 31.3913 34.2857 30.9091V7.27273C35.8012 7.27273 37.2547 8.03896 38.3263 9.40286C39.398 10.7668 40 12.6166 40 14.5455V30.9091C40 33.3202 39.2475 35.6325 37.9079 37.3373C36.5684 39.0422 34.7515 40 32.8571 40H7.14286C5.24845 40 3.43164 39.0422 2.09209 37.3373C0.752549 35.6325 0 33.3202 0 30.9091V7.27273ZM7.14286 10.9091C6.76398 10.9091 6.40061 11.1006 6.13271 11.4416C5.8648 11.7826 5.71429 12.2451 5.71429 12.7273C5.71429 13.2095 5.8648 13.6719 6.13271 14.0129C6.40061 14.3539 6.76398 14.5455 7.14286 14.5455H24.2857C24.6646 14.5455 25.028 14.3539 25.2959 14.0129C25.5638 13.6719 25.7143 13.2095 25.7143 12.7273C25.7143 12.2451 25.5638 11.7826 25.2959 11.4416C25.028 11.1006 24.6646 10.9091 24.2857 10.9091H7.14286ZM7.14286 18.1818C6.76398 18.1818 6.40061 18.3734 6.13271 18.7144C5.8648 19.0553 5.71429 19.5178 5.71429 20V27.2727C5.71429 27.7549 5.8648 28.2174 6.13271 28.5584C6.40061 28.8994 6.76398 29.0909 7.14286 29.0909H12.8571C13.236 29.0909 13.5994 28.8994 13.8673 28.5584C14.1352 28.2174 14.2857 27.7549 14.2857 27.2727V20C14.2857 19.5178 14.1352 19.0553 13.8673 18.7144C13.5994 18.3734 13.236 18.1818 12.8571 18.1818H7.14286ZM18.5714 18.1818C18.1925 18.1818 17.8292 18.3734 17.5613 18.7144C17.2934 19.0553 17.1429 19.5178 17.1429 20C17.1429 20.4822 17.2934 20.9447 17.5613 21.2856C17.8292 21.6266 18.1925 21.8182 18.5714 21.8182H24.2857C24.6646 21.8182 25.028 21.6266 25.2959 21.2856C25.5638 20.9447 25.7143 20.4822 25.7143 20C25.7143 19.5178 25.5638 19.0553 25.2959 18.7144C25.028 18.3734 24.6646 18.1818 24.2857 18.1818H18.5714ZM18.5714 25.4545C18.1925 25.4545 17.8292 25.6461 17.5613 25.9871C17.2934 26.3281 17.1429 26.7905 17.1429 27.2727C17.1429 27.7549 17.2934 28.2174 17.5613 28.5584C17.8292 28.8994 18.1925 29.0909 18.5714 29.0909H24.2857C24.6646 29.0909 25.028 28.8994 25.2959 28.5584C25.5638 28.2174 25.7143 27.7549 25.7143 27.2727C25.7143 26.7905 25.5638 26.3281 25.2959 25.9871C25.028 25.6461 24.6646 25.4545 24.2857 25.4545H18.5714Z" fill="white"/>
</svg>
