<svg width="1024" height="1024" viewBox="0 0 1024 1024" fill="none" xmlns="http://www.w3.org/2000/svg">
<path d="M713.5 599.9C702.6 594.3 648.3 567.7 638.2 564.1C628.1 560.3 620.7 558.5 613.4 569.7C606 580.8 585 605.5 578.4 613C572 620.4 565.5 621.3 554.6 615.8C489.8 583.4 447.3 558 404.6 484.7C393.3 465.2 415.9 466.6 437 424.5C440.6 417.1 438.8 410.8 436 405.2C433.2 399.6 411.2 345.4 402 323.3C393.1 301.8 383.9 304.8 377.2 304.4C370.8 304 363.5 304 356.1 304C348.7 304 336.8 306.8 326.7 317.7C316.6 328.8 288.1 355.5 288.1 409.7C288.1 463.9 327.6 516.4 333 523.8C338.6 531.2 410.7 642.4 521.4 690.3C591.4 720.5 618.8 723.1 653.8 717.9C675.1 714.7 719 691.3 728.1 665.4C737.2 639.6 737.2 617.5 734.5 612.9C731.8 608 724.4 605.2 713.5 599.9Z" fill="black"/>
<path d="M925.2 338.4C902.6 284.7 870.2 236.5 828.9 195.1C787.6 153.8 739.4 121.3 685.6 98.8C630.6 75.7 572.2 64 512 64H510C449.4 64.3 390.7 76.3 335.5 99.9C282.2 122.7 234.4 155.1 193.5 196.4C152.6 237.7 120.5 285.7 98.2998 339.2C75.2998 394.6 63.6998 453.5 63.9998 514.1C64.2998 583.5 80.8998 652.4 112 714V866C112 891.4 132.6 912 158 912H310.1C371.7 943.1 440.6 959.7 510 960H512.1C572 960 630.1 948.4 684.8 925.7C738.3 903.4 786.4 871.4 827.6 830.5C868.9 789.6 901.4 741.8 924.1 688.5C947.7 633.3 959.7 574.6 960 514C960.3 453.1 948.5 394 925.2 338.4ZM774.1 776.4C704 845.8 611 884 512 884H510.3C450 883.7 390.1 868.7 337.2 840.5L328.8 836H188V695.2L183.5 686.8C155.3 633.9 140.3 574 140 513.7C139.6 414 177.7 320.4 247.6 249.9C317.4 179.4 410.7 140.4 510.4 140H512.1C562.1 140 610.6 149.7 656.3 168.9C700.9 187.6 740.9 214.5 775.3 248.9C809.6 283.2 836.6 323.3 855.3 367.9C874.7 414.1 884.4 463.1 884.2 513.7C883.6 613.3 844.5 706.6 774.1 776.4Z" fill="black"/>
</svg>
